<svg width="16" height="16" viewBox="0 0 16 16" fill="none" xmlns="http://www.w3.org/2000/svg">
<path fill-rule="evenodd" clip-rule="evenodd" d="M13.9748 2.02533C13.6819 1.73244 13.207 1.73244 12.9141 2.02533L7.99999 6.93945L3.08587 2.02533L3.00175 1.95272C2.70814 1.73486 2.29148 1.75907 2.02521 2.02533C1.73232 2.31823 1.73232 2.7931 2.02521 3.08599L6.93933 8.00011L2.02521 12.9142L1.95259 12.9983C1.73474 13.292 1.75895 13.7086 2.02521 13.9749C2.31811 14.2678 2.79298 14.2678 3.08587 13.9749L7.99999 9.06077L12.9141 13.9749L12.9982 14.0475C13.2918 14.2654 13.7085 14.2411 13.9748 13.9749C14.2677 13.682 14.2677 13.2071 13.9748 12.9142L9.06065 8.00011L13.9748 3.08599L14.0474 3.00188C14.2652 2.70826 14.241 2.2916 13.9748 2.02533Z" fill="#D5D6D9"/>
</svg>
