<svg width="81" height="63" viewBox="0 0 81 63" fill="none" xmlns="http://www.w3.org/2000/svg">
<path d="M71.5024 26.9334C70.8623 26.4372 70.085 26.1181 69.259 26.0125C68.433 25.9068 67.5917 26.0189 66.831 26.3359L52.6768 32.1802L44.4528 18.4137C44.0598 17.771 43.4903 17.2365 42.8023 16.8646C42.1144 16.4928 41.3326 16.2969 40.5367 16.2969C39.7407 16.2969 38.9589 16.4928 38.271 16.8646C37.5831 17.2365 37.0136 17.771 36.6205 18.4137L28.3965 32.1802L14.2423 26.3359C13.4801 26.0194 12.6377 25.9072 11.8104 26.0119C10.983 26.1167 10.2037 26.4343 9.56061 26.9288C8.91748 27.4233 8.43615 28.075 8.17104 28.8102C7.90592 29.5455 7.86759 30.3349 8.06038 31.0893L15.1654 59.2198C15.3013 59.7644 15.5548 60.2778 15.9106 60.7287C16.2664 61.1796 16.7171 61.5588 17.2354 61.8433C17.9371 62.2333 18.7394 62.4397 19.5572 62.4407C19.9547 62.44 20.3502 62.3875 20.732 62.2848C33.6829 58.96 47.3625 58.96 60.3133 62.2848C61.4958 62.5735 62.7534 62.4147 63.8099 61.8433C64.3314 61.5624 64.7845 61.1844 65.1408 60.7328C65.4971 60.2813 65.7487 59.7662 65.8799 59.2198L73.0129 31.0893C73.2036 30.3347 73.1631 29.5456 72.8962 28.8112C72.6293 28.0768 72.1465 27.4264 71.5024 26.9334Z" fill="#FFAA00"/>
<circle cx="40.5367" cy="9.31311" r="9.31311" fill="#FFAA00"/>
<circle cx="40.5356" cy="41.9106" r="6.98483" fill="#BE9502"/>
<circle cx="74.2953" cy="24.4457" r="5.82069" fill="#FFAA00"/>
<circle cx="6.77577" cy="24.4457" r="5.82069" fill="#FFAA00"/>
<circle cx="23.0744" cy="45.4006" r="3.49242" fill="#BE9502"/>
<circle cx="57.9983" cy="45.4006" r="3.49242" fill="#BE9502"/>
</svg>
