<svg width="25" height="25" viewBox="0 0 25 25" fill="none" xmlns="http://www.w3.org/2000/svg">
<path d="M21.1076 4.79054C20.5968 4.27954 19.9904 3.87418 19.3229 3.59762C18.6555 3.32106 17.9401 3.17871 17.2176 3.17871C16.4951 3.17871 15.7797 3.32106 15.1122 3.59762C14.4448 3.87418 13.8383 4.27954 13.3276 4.79054L12.2676 5.85054L11.2076 4.79054C10.1759 3.75884 8.77661 3.17925 7.31757 3.17925C5.85854 3.17925 4.45927 3.75884 3.42757 4.79054C2.39588 5.82223 1.81628 7.2215 1.81628 8.68054C1.81628 10.1396 2.39588 11.5388 3.42757 12.5705L4.48757 13.6305L12.2676 21.4105L20.0476 13.6305L21.1076 12.5705C21.6186 12.0598 22.0239 11.4533 22.3005 10.7859C22.577 10.1184 22.7194 9.40302 22.7194 8.68054C22.7194 7.95805 22.577 7.24264 22.3005 6.57518C22.0239 5.90772 21.6186 5.30129 21.1076 4.79054V4.79054Z" stroke="#F94025" stroke-linecap="round" stroke-linejoin="round"/>
</svg>
