<svg width="27" height="25" viewBox="0 0 27 25" fill="none" xmlns="http://www.w3.org/2000/svg">
<path d="M23.3384 4.79054C22.773 4.27954 22.1017 3.87418 21.3628 3.59762C20.6239 3.32106 19.8319 3.17871 19.0321 3.17871C18.2323 3.17871 17.4403 3.32106 16.7014 3.59762C15.9625 3.87418 15.2912 4.27954 14.7258 4.79054L13.5523 5.85054L12.3789 4.79054C11.2368 3.75884 9.68774 3.17925 8.07256 3.17925C6.45737 3.17925 4.90833 3.75884 3.76622 4.79054C2.62411 5.82223 1.98248 7.2215 1.98248 8.68054C1.98248 10.1396 2.62411 11.5388 3.76622 12.5705L4.93967 13.6305L13.5523 21.4105L22.165 13.6305L23.3384 12.5705C23.9041 12.0598 24.3529 11.4533 24.659 10.7859C24.9652 10.1184 25.1228 9.40302 25.1228 8.68054C25.1228 7.95805 24.9652 7.24264 24.659 6.57518C24.3529 5.90772 23.9041 5.30129 23.3384 4.79054V4.79054Z" fill="#F94025"/>
</svg>
