<svg width="24" height="25" viewBox="0 0 24 25" fill="none" xmlns="http://www.w3.org/2000/svg">
<path d="M20.85 16.5115C22.35 14.8615 23.25 13.174 23.25 12.199C23.25 9.98652 18.225 3.49902 12 3.49902C5.775 3.49902 0.75 9.98652 0.75 12.199C0.75 14.4115 5.775 20.899 12 20.899C13.725 20.899 15.375 20.4115 16.8375 19.624L20.85 22.249V16.5115Z" fill="#4FD1D9"/>
<path d="M12 17.8242C15.1066 17.8242 17.625 15.3058 17.625 12.1992C17.625 9.09262 15.1066 6.57422 12 6.57422C8.8934 6.57422 6.375 9.09262 6.375 12.1992C6.375 15.3058 8.8934 17.8242 12 17.8242Z" fill="white"/>
<path d="M12 8.82422C11.625 8.82422 11.2875 8.89922 10.95 8.97422C11.3625 9.31172 11.625 9.83672 11.625 10.3992C11.625 11.4492 10.8 12.2742 9.75 12.2742C9.3375 12.2742 8.9625 12.1242 8.625 11.8992V12.1617C8.625 14.0367 10.125 15.5367 12 15.5367C13.875 15.5367 15.375 14.0367 15.375 12.1617C15.375 10.2867 13.875 8.82422 12 8.82422Z" fill="#4FD1D9"/>
</svg>
